<svg width="1920" height="560" viewBox="0 0 1920 560" fill="none" xmlns="http://www.w3.org/2000/svg">
<path d="M1213.05 328.09C1250.07 328.09 1280.09 298.073 1280.09 261.045C1280.09 224.017 1250.07 194 1213.05 194C1176.02 194 1146 224.017 1146 261.045C1146 298.073 1176.02 328.09 1213.05 328.09Z" fill="url(#paint0_linear_304_23)"/>
<path d="M1418.85 476.71C1448.05 476.71 1471.71 453.046 1471.71 423.855C1471.71 394.664 1448.05 371 1418.85 371C1389.66 371 1366 394.664 1366 423.855C1366 453.046 1389.66 476.71 1418.85 476.71Z" fill="url(#paint1_linear_304_23)"/>
<path d="M192.44 436.88C213.118 436.88 229.88 420.118 229.88 399.44C229.88 378.762 213.118 362 192.44 362C171.762 362 155 378.762 155 399.44C155 420.118 171.762 436.88 192.44 436.88Z" fill="#43468B"/>
<path d="M483.44 395.88C512.954 395.88 536.88 371.954 536.88 342.44C536.88 312.926 512.954 289 483.44 289C453.926 289 430 312.926 430 342.44C430 371.954 453.926 395.88 483.44 395.88Z" fill="url(#paint2_linear_304_23)"/>
<path d="M567.55 159.1C597.125 159.1 621.1 135.125 621.1 105.55C621.1 75.9751 597.125 52 567.55 52C537.975 52 514 75.9751 514 105.55C514 135.125 537.975 159.1 567.55 159.1Z" fill="#43468B"/>
<path d="M1577.26 341.53C1602.26 341.53 1622.53 321.264 1622.53 296.265C1622.53 271.266 1602.26 251 1577.26 251C1552.27 251 1532 271.266 1532 296.265C1532 321.264 1552.27 341.53 1577.26 341.53Z" fill="url(#paint3_linear_304_23)"/>
<path d="M1740.59 156.44C1768.85 156.44 1791.76 133.53 1791.76 105.27C1791.76 77.0096 1768.85 54.1 1740.59 54.1C1712.33 54.1 1689.42 77.0096 1689.42 105.27C1689.42 133.53 1712.33 156.44 1740.59 156.44Z" fill="#43468B"/>
<path d="M833.305 172.61C859.431 172.61 880.61 151.431 880.61 125.305C880.61 99.1792 859.431 78 833.305 78C807.179 78 786 99.1792 786 125.305C786 151.431 807.179 172.61 833.305 172.61Z" fill="url(#paint4_linear_304_23)"/>
<path d="M1387.61 175.21C1426.05 175.21 1457.21 144.047 1457.21 105.605C1457.21 67.1632 1426.05 36 1387.61 36C1349.16 36 1318 67.1632 1318 105.605C1318 144.047 1349.16 175.21 1387.61 175.21Z" fill="url(#paint5_linear_304_23)"/>
<path d="M1805.86 360.72C1836.16 360.72 1860.72 336.158 1860.72 305.86C1860.72 275.562 1836.16 251 1805.86 251C1775.56 251 1751 275.562 1751 305.86C1751 336.158 1775.56 360.72 1805.86 360.72Z" fill="url(#paint6_linear_304_23)"/>
<path d="M1698.03 556.05C1721.79 556.05 1741.05 536.787 1741.05 513.025C1741.05 489.263 1721.79 470 1698.03 470C1674.26 470 1655 489.263 1655 513.025C1655 536.787 1674.26 556.05 1698.03 556.05Z" fill="#43468B"/>
<path d="M279.32 228.11C318.041 228.11 349.43 196.721 349.43 158C349.43 119.279 318.041 87.89 279.32 87.89C240.599 87.89 209.21 119.279 209.21 158C209.21 196.721 240.599 228.11 279.32 228.11Z" fill="url(#paint7_linear_304_23)"/>
<path d="M64.03 503.8C96.6314 503.8 123.06 477.371 123.06 444.77C123.06 412.169 96.6314 385.74 64.03 385.74C31.4286 385.74 5 412.169 5 444.77C5 477.371 31.4286 503.8 64.03 503.8Z" fill="url(#paint8_linear_304_23)"/>
<path d="M681.23 524.46C701.239 524.46 717.46 508.239 717.46 488.23C717.46 468.221 701.239 452 681.23 452C661.221 452 645 468.221 645 488.23C645 508.239 661.221 524.46 681.23 524.46Z" fill="url(#paint9_linear_304_23)"/>
<path d="M244.64 504.28C273.712 504.28 297.28 480.712 297.28 451.64C297.28 422.568 273.712 399 244.64 399C215.568 399 192 422.568 192 451.64C192 480.712 215.568 504.28 244.64 504.28Z" fill="#43468B"/>
<defs>
<linearGradient id="paint0_linear_304_23" x1="1078.95" y1="261.045" x2="1347.14" y2="261.045" gradientUnits="userSpaceOnUse">
<stop offset="0.1" stop-color="#E298DE"/>
<stop offset="0.9" stop-color="#484687"/>
</linearGradient>
<linearGradient id="paint1_linear_304_23" x1="1313.15" y1="423.855" x2="1524.56" y2="423.855" gradientUnits="userSpaceOnUse">
<stop offset="0.1" stop-color="#84B6E0"/>
<stop offset="0.9" stop-color="#464A8F"/>
</linearGradient>
<linearGradient id="paint2_linear_304_23" x1="376.56" y1="342.44" x2="590.32" y2="342.44" gradientUnits="userSpaceOnUse">
<stop offset="0.1" stop-color="#F29B7C"/>
<stop offset="0.9" stop-color="#7E6286"/>
</linearGradient>
<linearGradient id="paint3_linear_304_23" x1="1486.74" y1="296.265" x2="1667.79" y2="296.265" gradientUnits="userSpaceOnUse">
<stop offset="0.1" stop-color="#AB3C51"/>
<stop offset="0.9" stop-color="#4F4484"/>
</linearGradient>
<linearGradient id="paint4_linear_304_23" x1="738.695" y1="125.305" x2="927.915" y2="125.305" gradientUnits="userSpaceOnUse">
<stop offset="0.1" stop-color="#E298DE"/>
<stop offset="0.9" stop-color="#484687"/>
</linearGradient>
<linearGradient id="paint5_linear_304_23" x1="1248.39" y1="105.605" x2="1526.82" y2="105.605" gradientUnits="userSpaceOnUse">
<stop offset="0.1" stop-color="#32325D"/>
<stop offset="0.9" stop-color="#424488"/>
</linearGradient>
<linearGradient id="paint6_linear_304_23" x1="1696.14" y1="305.86" x2="1915.58" y2="305.86" gradientUnits="userSpaceOnUse">
<stop offset="0.1" stop-color="#E298DE"/>
<stop offset="0.9" stop-color="#484687"/>
</linearGradient>
<linearGradient id="paint7_linear_304_23" x1="139.1" y1="158" x2="419.54" y2="158" gradientUnits="userSpaceOnUse">
<stop offset="0.1" stop-color="#AB3C51"/>
<stop offset="0.9" stop-color="#4F4484"/>
</linearGradient>
<linearGradient id="paint8_linear_304_23" x1="-54.03" y1="444.77" x2="182.09" y2="444.77" gradientUnits="userSpaceOnUse">
<stop offset="0.1" stop-color="#AB3C51"/>
<stop offset="0.9" stop-color="#4F4484"/>
</linearGradient>
<linearGradient id="paint9_linear_304_23" x1="608.77" y1="488.23" x2="753.69" y2="488.23" gradientUnits="userSpaceOnUse">
<stop offset="0.1" stop-color="#E298DE"/>
<stop offset="0.9" stop-color="#484687"/>
</linearGradient>
</defs>
</svg>
